<svg width="283" height="144" viewBox="0 0 283 144" fill="none" xmlns="http://www.w3.org/2000/svg">
<rect x="0.5" width="282.5" height="144" rx="16" fill="#171717"/>
<path d="M35.2727 34H33.8636C33.7803 33.5947 33.6345 33.2386 33.4261 32.9318C33.2216 32.625 32.9716 32.3674 32.6761 32.1591C32.3845 31.947 32.0606 31.7879 31.7045 31.6818C31.3485 31.5758 30.9773 31.5227 30.5909 31.5227C29.8864 31.5227 29.2481 31.7008 28.6761 32.0568C28.108 32.4129 27.6553 32.9375 27.3182 33.6307C26.9848 34.3239 26.8182 35.1742 26.8182 36.1818C26.8182 37.1894 26.9848 38.0398 27.3182 38.733C27.6553 39.4261 28.108 39.9508 28.6761 40.3068C29.2481 40.6629 29.8864 40.8409 30.5909 40.8409C30.9773 40.8409 31.3485 40.7879 31.7045 40.6818C32.0606 40.5758 32.3845 40.4186 32.6761 40.2102C32.9716 39.9981 33.2216 39.7386 33.4261 39.4318C33.6345 39.1212 33.7803 38.7652 33.8636 38.3636H35.2727C35.1667 38.9583 34.9735 39.4905 34.6932 39.9602C34.4129 40.4299 34.0644 40.8295 33.6477 41.1591C33.2311 41.4848 32.7633 41.733 32.2443 41.9034C31.7292 42.0739 31.178 42.1591 30.5909 42.1591C29.5985 42.1591 28.7159 41.9167 27.9432 41.4318C27.1705 40.947 26.5625 40.2576 26.1193 39.3636C25.6761 38.4697 25.4545 37.4091 25.4545 36.1818C25.4545 34.9545 25.6761 33.8939 26.1193 33C26.5625 32.1061 27.1705 31.4167 27.9432 30.9318C28.7159 30.447 29.5985 30.2045 30.5909 30.2045C31.178 30.2045 31.7292 30.2898 32.2443 30.4602C32.7633 30.6307 33.2311 30.8807 33.6477 31.2102C34.0644 31.536 34.4129 31.9337 34.6932 32.4034C34.9735 32.8693 35.1667 33.4015 35.2727 34ZM40.9134 42.1818C40.1255 42.1818 39.4342 41.9943 38.8395 41.6193C38.2486 41.2443 37.7865 40.7197 37.4531 40.0455C37.1236 39.3712 36.9588 38.5833 36.9588 37.6818C36.9588 36.7727 37.1236 35.9792 37.4531 35.3011C37.7865 34.6231 38.2486 34.0966 38.8395 33.7216C39.4342 33.3466 40.1255 33.1591 40.9134 33.1591C41.7012 33.1591 42.3906 33.3466 42.9815 33.7216C43.5762 34.0966 44.0384 34.6231 44.3679 35.3011C44.7012 35.9792 44.8679 36.7727 44.8679 37.6818C44.8679 38.5833 44.7012 39.3712 44.3679 40.0455C44.0384 40.7197 43.5762 41.2443 42.9815 41.6193C42.3906 41.9943 41.7012 42.1818 40.9134 42.1818ZM40.9134 40.9773C41.5118 40.9773 42.0043 40.8239 42.3906 40.517C42.777 40.2102 43.063 39.8068 43.2486 39.3068C43.4342 38.8068 43.527 38.2652 43.527 37.6818C43.527 37.0985 43.4342 36.5549 43.2486 36.0511C43.063 35.5473 42.777 35.1402 42.3906 34.8295C42.0043 34.5189 41.5118 34.3636 40.9134 34.3636C40.3149 34.3636 39.8224 34.5189 39.4361 34.8295C39.0497 35.1402 38.7637 35.5473 38.5781 36.0511C38.3925 36.5549 38.2997 37.0985 38.2997 37.6818C38.2997 38.2652 38.3925 38.8068 38.5781 39.3068C38.7637 39.8068 39.0497 40.2102 39.4361 40.517C39.8224 40.8239 40.3149 40.9773 40.9134 40.9773ZM47.5554 33.2727L49.6463 36.8409L51.7372 33.2727H53.2827L50.4645 37.6364L53.2827 42H51.7372L49.6463 38.6136L47.5554 42H46.0099L48.7827 37.6364L46.0099 33.2727H47.5554ZM55.196 45.2727V33.2727H56.4915V34.6591H56.6506C56.7491 34.5076 56.8854 34.3144 57.0597 34.0795C57.2377 33.8409 57.4915 33.6288 57.821 33.4432C58.1544 33.2538 58.6051 33.1591 59.1733 33.1591C59.9081 33.1591 60.5559 33.3428 61.1165 33.7102C61.6771 34.0777 62.1146 34.5985 62.429 35.2727C62.7434 35.947 62.9006 36.7424 62.9006 37.6591C62.9006 38.5833 62.7434 39.3845 62.429 40.0625C62.1146 40.7367 61.679 41.2595 61.1222 41.6307C60.5653 41.9981 59.9233 42.1818 59.196 42.1818C58.6354 42.1818 58.1866 42.089 57.8494 41.9034C57.5123 41.714 57.2528 41.5 57.071 41.2614C56.8892 41.0189 56.7491 40.8182 56.6506 40.6591H56.5369V45.2727H55.196ZM56.5142 37.6364C56.5142 38.2955 56.6108 38.8769 56.804 39.3807C56.9972 39.8807 57.2794 40.2727 57.6506 40.5568C58.0218 40.8371 58.4763 40.9773 59.0142 40.9773C59.5748 40.9773 60.0426 40.8295 60.4176 40.5341C60.7964 40.2348 61.0805 39.8333 61.2699 39.3295C61.4631 38.822 61.5597 38.2576 61.5597 37.6364C61.5597 37.0227 61.465 36.4697 61.2756 35.9773C61.09 35.4811 60.8078 35.089 60.429 34.8011C60.054 34.5095 59.5824 34.3636 59.0142 34.3636C58.4688 34.3636 58.0104 34.5019 57.6392 34.7784C57.268 35.0511 56.9877 35.4337 56.7983 35.9261C56.6089 36.4148 56.5142 36.9848 56.5142 37.6364ZM67.5142 42.2045C66.9612 42.2045 66.4593 42.1004 66.0085 41.892C65.5578 41.6799 65.1998 41.375 64.9347 40.9773C64.6695 40.5758 64.5369 40.0909 64.5369 39.5227C64.5369 39.0227 64.6354 38.6174 64.8324 38.3068C65.0294 37.9924 65.2926 37.7462 65.6222 37.5682C65.9517 37.3902 66.3153 37.2576 66.7131 37.1705C67.1146 37.0795 67.518 37.0076 67.9233 36.9545C68.4536 36.8864 68.8835 36.8352 69.2131 36.8011C69.5464 36.7633 69.7888 36.7008 69.9403 36.6136C70.0956 36.5265 70.1733 36.375 70.1733 36.1591V36.1136C70.1733 35.553 70.0199 35.1174 69.7131 34.8068C69.41 34.4962 68.9498 34.3409 68.3324 34.3409C67.6922 34.3409 67.1903 34.4811 66.8267 34.7614C66.4631 35.0417 66.2074 35.3409 66.0597 35.6591L64.7869 35.2045C65.0142 34.6742 65.3172 34.2614 65.696 33.9659C66.0786 33.6667 66.4953 33.4583 66.946 33.3409C67.4006 33.2197 67.8475 33.1591 68.2869 33.1591C68.5672 33.1591 68.8892 33.1932 69.2528 33.2614C69.6203 33.3258 69.9744 33.4602 70.3153 33.6648C70.66 33.8693 70.946 34.178 71.1733 34.5909C71.4006 35.0038 71.5142 35.5568 71.5142 36.25V42H70.1733V40.8182H70.1051C70.0142 41.0076 69.8627 41.2102 69.6506 41.4261C69.4384 41.642 69.1563 41.8258 68.804 41.9773C68.4517 42.1288 68.0218 42.2045 67.5142 42.2045ZM67.7188 41C68.2491 41 68.696 40.8958 69.0597 40.6875C69.4271 40.4792 69.7036 40.2102 69.8892 39.8807C70.0786 39.5511 70.1733 39.2045 70.1733 38.8409V37.6136C70.1165 37.6818 69.9915 37.7443 69.7983 37.8011C69.6089 37.8542 69.3892 37.9015 69.1392 37.9432C68.893 37.9811 68.6525 38.0152 68.4176 38.0455C68.1866 38.072 67.9991 38.0947 67.8551 38.1136C67.5066 38.1591 67.1809 38.233 66.8778 38.3352C66.5786 38.4337 66.3362 38.5833 66.1506 38.7841C65.9688 38.9811 65.8778 39.25 65.8778 39.5909C65.8778 40.0568 66.0502 40.4091 66.3949 40.6477C66.7434 40.8826 67.1847 41 67.7188 41ZM79.8026 37.0227V38.2727H74.9844V37.0227H79.8026ZM75.3026 33.2727V42H73.9616V33.2727H75.3026ZM80.8253 33.2727V42H79.4844V33.2727H80.8253ZM86.9332 42.1818C86.0923 42.1818 85.367 41.9962 84.7571 41.625C84.151 41.25 83.6832 40.7273 83.3537 40.0568C83.0279 39.3826 82.8651 38.5985 82.8651 37.7045C82.8651 36.8106 83.0279 36.0227 83.3537 35.3409C83.6832 34.6553 84.1416 34.1212 84.7287 33.7386C85.3196 33.3523 86.009 33.1591 86.7969 33.1591C87.2514 33.1591 87.7003 33.2348 88.1435 33.3864C88.5866 33.5379 88.9901 33.7841 89.3537 34.125C89.7173 34.4621 90.0071 34.9091 90.223 35.4659C90.4389 36.0227 90.5469 36.7083 90.5469 37.5227V38.0909H83.8196V36.9318H89.1832C89.1832 36.4394 89.0848 36 88.8878 35.6136C88.6946 35.2273 88.4181 34.9223 88.0582 34.6989C87.7022 34.4754 87.2817 34.3636 86.7969 34.3636C86.2628 34.3636 85.8007 34.4962 85.4105 34.7614C85.0241 35.0227 84.7268 35.3636 84.5185 35.7841C84.3101 36.2045 84.206 36.6553 84.206 37.1364V37.9091C84.206 38.5682 84.3196 39.1269 84.5469 39.5852C84.7779 40.0398 85.098 40.3864 85.5071 40.625C85.9162 40.8598 86.3916 40.9773 86.9332 40.9773C87.2855 40.9773 87.6037 40.928 87.8878 40.8295C88.1757 40.7273 88.4238 40.5758 88.6321 40.375C88.8404 40.1705 89.0014 39.9167 89.1151 39.6136L90.4105 39.9773C90.2741 40.4167 90.045 40.803 89.723 41.1364C89.401 41.4659 89.0033 41.7235 88.5298 41.9091C88.0563 42.0909 87.5241 42.1818 86.9332 42.1818ZM98.4276 37.0227V38.2727H93.6094V37.0227H98.4276ZM93.9276 33.2727V42H92.5866V33.2727H93.9276ZM99.4503 33.2727V42H98.1094V33.2727H99.4503ZM103.24 40.0227L107.445 33.2727H108.99V42H107.649V35.25L103.467 42H101.899V33.2727H103.24V40.0227ZM115.105 42.1818C114.264 42.1818 113.539 41.9962 112.929 41.625C112.323 41.25 111.855 40.7273 111.526 40.0568C111.2 39.3826 111.037 38.5985 111.037 37.7045C111.037 36.8106 111.2 36.0227 111.526 35.3409C111.855 34.6553 112.313 34.1212 112.901 33.7386C113.491 33.3523 114.181 33.1591 114.969 33.1591C115.423 33.1591 115.872 33.2348 116.315 33.3864C116.759 33.5379 117.162 33.7841 117.526 34.125C117.889 34.4621 118.179 34.9091 118.395 35.4659C118.611 36.0227 118.719 36.7083 118.719 37.5227V38.0909H111.991V36.9318H117.355C117.355 36.4394 117.257 36 117.06 35.6136C116.866 35.2273 116.59 34.9223 116.23 34.6989C115.874 34.4754 115.454 34.3636 114.969 34.3636C114.435 34.3636 113.973 34.4962 113.582 34.7614C113.196 35.0227 112.899 35.3636 112.69 35.7841C112.482 36.2045 112.378 36.6553 112.378 37.1364V37.9091C112.378 38.5682 112.491 39.1269 112.719 39.5852C112.95 40.0398 113.27 40.3864 113.679 40.625C114.088 40.8598 114.563 40.9773 115.105 40.9773C115.457 40.9773 115.776 40.928 116.06 40.8295C116.348 40.7273 116.596 40.5758 116.804 40.375C117.012 40.1705 117.173 39.9167 117.287 39.6136L118.582 39.9773C118.446 40.4167 118.217 40.803 117.895 41.1364C117.573 41.4659 117.175 41.7235 116.702 41.9091C116.228 42.0909 115.696 42.1818 115.105 42.1818ZM125.259 45.2727V33.2727H126.554V34.6591H126.713C126.812 34.5076 126.948 34.3144 127.122 34.0795C127.3 33.8409 127.554 33.6288 127.884 33.4432C128.217 33.2538 128.668 33.1591 129.236 33.1591C129.971 33.1591 130.618 33.3428 131.179 33.7102C131.74 34.0777 132.177 34.5985 132.491 35.2727C132.806 35.947 132.963 36.7424 132.963 37.6591C132.963 38.5833 132.806 39.3845 132.491 40.0625C132.177 40.7367 131.741 41.2595 131.185 41.6307C130.628 41.9981 129.986 42.1818 129.259 42.1818C128.698 42.1818 128.249 42.089 127.912 41.9034C127.575 41.714 127.315 41.5 127.134 41.2614C126.952 41.0189 126.812 40.8182 126.713 40.6591H126.599V45.2727H125.259ZM126.577 37.6364C126.577 38.2955 126.673 38.8769 126.866 39.3807C127.06 39.8807 127.342 40.2727 127.713 40.5568C128.084 40.8371 128.539 40.9773 129.077 40.9773C129.637 40.9773 130.105 40.8295 130.48 40.5341C130.859 40.2348 131.143 39.8333 131.332 39.3295C131.526 38.822 131.622 38.2576 131.622 37.6364C131.622 37.0227 131.527 36.4697 131.338 35.9773C131.152 35.4811 130.87 35.089 130.491 34.8011C130.116 34.5095 129.645 34.3636 129.077 34.3636C128.531 34.3636 128.073 34.5019 127.702 34.7784C127.33 35.0511 127.05 35.4337 126.861 35.9261C126.671 36.4148 126.577 36.9848 126.577 37.6364ZM138.668 42.1818C137.827 42.1818 137.101 41.9962 136.491 41.625C135.885 41.25 135.418 40.7273 135.088 40.0568C134.762 39.3826 134.599 38.5985 134.599 37.7045C134.599 36.8106 134.762 36.0227 135.088 35.3409C135.418 34.6553 135.876 34.1212 136.463 33.7386C137.054 33.3523 137.743 33.1591 138.531 33.1591C138.986 33.1591 139.435 33.2348 139.878 33.3864C140.321 33.5379 140.724 33.7841 141.088 34.125C141.452 34.4621 141.741 34.9091 141.957 35.4659C142.173 36.0227 142.281 36.7083 142.281 37.5227V38.0909H135.554V36.9318H140.918C140.918 36.4394 140.819 36 140.622 35.6136C140.429 35.2273 140.152 34.9223 139.793 34.6989C139.437 34.4754 139.016 34.3636 138.531 34.3636C137.997 34.3636 137.535 34.4962 137.145 34.7614C136.759 35.0227 136.461 35.3636 136.253 35.7841C136.045 36.2045 135.94 36.6553 135.94 37.1364V37.9091C135.94 38.5682 136.054 39.1269 136.281 39.5852C136.512 40.0398 136.832 40.3864 137.241 40.625C137.651 40.8598 138.126 40.9773 138.668 40.9773C139.02 40.9773 139.338 40.928 139.622 40.8295C139.91 40.7273 140.158 40.5758 140.366 40.375C140.575 40.1705 140.736 39.9167 140.849 39.6136L142.145 39.9773C142.009 40.4167 141.779 40.803 141.457 41.1364C141.135 41.4659 140.738 41.7235 140.264 41.9091C139.791 42.0909 139.259 42.1818 138.668 42.1818ZM144.321 42V33.2727H151.185V42H149.844V34.5227H145.662V42H144.321ZM154.185 45.2727C153.957 45.2727 153.755 45.2538 153.577 45.2159C153.399 45.1818 153.276 45.1477 153.207 45.1136L153.548 43.9318C153.874 44.0152 154.162 44.0455 154.412 44.0227C154.662 44 154.884 43.8883 155.077 43.6875C155.274 43.4905 155.454 43.1705 155.616 42.7273L155.866 42.0455L152.639 33.2727H154.094L156.503 40.2273H156.594L159.003 33.2727H160.457L156.753 43.2727C156.586 43.7235 156.38 44.0966 156.134 44.392C155.887 44.6913 155.601 44.9129 155.276 45.0568C154.954 45.2008 154.59 45.2727 154.185 45.2727ZM161.727 34.5227V33.2727H168.818V34.5227H165.955V42H164.614V34.5227H161.727ZM172.889 42.2045C172.336 42.2045 171.834 42.1004 171.384 41.892C170.933 41.6799 170.575 41.375 170.31 40.9773C170.045 40.5758 169.912 40.0909 169.912 39.5227C169.912 39.0227 170.01 38.6174 170.207 38.3068C170.404 37.9924 170.668 37.7462 170.997 37.5682C171.327 37.3902 171.69 37.2576 172.088 37.1705C172.49 37.0795 172.893 37.0076 173.298 36.9545C173.829 36.8864 174.259 36.8352 174.588 36.8011C174.921 36.7633 175.164 36.7008 175.315 36.6136C175.471 36.5265 175.548 36.375 175.548 36.1591V36.1136C175.548 35.553 175.395 35.1174 175.088 34.8068C174.785 34.4962 174.325 34.3409 173.707 34.3409C173.067 34.3409 172.565 34.4811 172.202 34.7614C171.838 35.0417 171.582 35.3409 171.435 35.6591L170.162 35.2045C170.389 34.6742 170.692 34.2614 171.071 33.9659C171.454 33.6667 171.87 33.4583 172.321 33.3409C172.776 33.2197 173.223 33.1591 173.662 33.1591C173.942 33.1591 174.264 33.1932 174.628 33.2614C174.995 33.3258 175.349 33.4602 175.69 33.6648C176.035 33.8693 176.321 34.178 176.548 34.5909C176.776 35.0038 176.889 35.5568 176.889 36.25V42H175.548V40.8182H175.48C175.389 41.0076 175.238 41.2102 175.026 41.4261C174.813 41.642 174.531 41.8258 174.179 41.9773C173.827 42.1288 173.397 42.2045 172.889 42.2045ZM173.094 41C173.624 41 174.071 40.8958 174.435 40.6875C174.802 40.4792 175.079 40.2102 175.264 39.8807C175.454 39.5511 175.548 39.2045 175.548 38.8409V37.6136C175.491 37.6818 175.366 37.7443 175.173 37.8011C174.984 37.8542 174.764 37.9015 174.514 37.9432C174.268 37.9811 174.027 38.0152 173.793 38.0455C173.562 38.072 173.374 38.0947 173.23 38.1136C172.882 38.1591 172.556 38.233 172.253 38.3352C171.954 38.4337 171.711 38.5833 171.526 38.7841C171.344 38.9811 171.253 39.25 171.253 39.5909C171.253 40.0568 171.425 40.4091 171.77 40.6477C172.118 40.8826 172.56 41 173.094 41ZM186.2 33.2727V40.75H187.428V44.8182H186.087V42H179.337V33.2727H180.678V40.75H184.859V33.2727H186.2ZM190.834 40.0227L195.038 33.2727H196.584V42H195.243V35.25L191.061 42H189.493V33.2727H190.834V40.0227ZM200.381 40.0227L204.585 33.2727H206.131V42H204.79V35.25L200.608 42H199.04V33.2727H200.381V40.0227ZM29.3864 66.1818C28.5455 66.1818 27.8201 65.9962 27.2102 65.625C26.6042 65.25 26.1364 64.7273 25.8068 64.0568C25.4811 63.3826 25.3182 62.5985 25.3182 61.7045C25.3182 60.8106 25.4811 60.0227 25.8068 59.3409C26.1364 58.6553 26.5947 58.1212 27.1818 57.7386C27.7727 57.3523 28.4621 57.1591 29.25 57.1591C29.7045 57.1591 30.1534 57.2348 30.5966 57.3864C31.0398 57.5379 31.4432 57.7841 31.8068 58.125C32.1705 58.4621 32.4602 58.9091 32.6761 59.4659C32.892 60.0227 33 60.7083 33 61.5227V62.0909H26.2727V60.9318H31.6364C31.6364 60.4394 31.5379 60 31.3409 59.6136C31.1477 59.2273 30.8712 58.9223 30.5114 58.6989C30.1553 58.4754 29.7348 58.3636 29.25 58.3636C28.7159 58.3636 28.2538 58.4962 27.8636 58.7614C27.4773 59.0227 27.1799 59.3636 26.9716 59.7841C26.7633 60.2045 26.6591 60.6553 26.6591 61.1364V61.9091C26.6591 62.5682 26.7727 63.1269 27 63.5852C27.2311 64.0398 27.5511 64.3864 27.9602 64.625C28.3693 64.8598 28.8447 64.9773 29.3864 64.9773C29.7386 64.9773 30.0568 64.928 30.3409 64.8295C30.6288 64.7273 30.8769 64.5758 31.0852 64.375C31.2936 64.1705 31.4545 63.9167 31.5682 63.6136L32.8636 63.9773C32.7273 64.4167 32.4981 64.803 32.1761 65.1364C31.8542 65.4659 31.4564 65.7235 30.983 65.9091C30.5095 66.0909 29.9773 66.1818 29.3864 66.1818ZM35.0398 66V57.2727H38.608C39.5473 57.2727 40.2936 57.4848 40.8466 57.9091C41.3996 58.3333 41.6761 58.8939 41.6761 59.5909C41.6761 60.1212 41.5189 60.5322 41.2045 60.8239C40.8902 61.1117 40.4867 61.3068 39.9943 61.4091C40.3163 61.4545 40.6288 61.5682 40.9318 61.75C41.2386 61.9318 41.4924 62.1818 41.6932 62.5C41.8939 62.8144 41.9943 63.2008 41.9943 63.6591C41.9943 64.1061 41.8807 64.5057 41.6534 64.858C41.4261 65.2102 41.1004 65.4886 40.6761 65.6932C40.2519 65.8977 39.7443 66 39.1534 66H35.0398ZM36.3125 64.7727H39.1534C39.6155 64.7727 39.9773 64.6629 40.2386 64.4432C40.5 64.2235 40.6307 63.9242 40.6307 63.5455C40.6307 63.0947 40.5 62.7405 40.2386 62.483C39.9773 62.2216 39.6155 62.0909 39.1534 62.0909H36.3125V64.7727ZM36.3125 60.9318H38.608C38.9678 60.9318 39.2765 60.8826 39.5341 60.7841C39.7917 60.6818 39.9886 60.5379 40.125 60.3523C40.2652 60.1629 40.3352 59.9394 40.3352 59.6818C40.3352 59.3144 40.1818 59.0265 39.875 58.8182C39.5682 58.6061 39.1458 58.5 38.608 58.5H36.3125V60.9318ZM44.0241 69.2727V57.2727H45.3196V58.6591H45.4787C45.5772 58.5076 45.7135 58.3144 45.8878 58.0795C46.0658 57.8409 46.3196 57.6288 46.6491 57.4432C46.9825 57.2538 47.4332 57.1591 48.0014 57.1591C48.7363 57.1591 49.384 57.3428 49.9446 57.7102C50.5052 58.0777 50.9427 58.5985 51.2571 59.2727C51.5715 59.947 51.7287 60.7424 51.7287 61.6591C51.7287 62.5833 51.5715 63.3845 51.2571 64.0625C50.9427 64.7367 50.5071 65.2595 49.9503 65.6307C49.3935 65.9981 48.7514 66.1818 48.0241 66.1818C47.4635 66.1818 47.0147 66.089 46.6776 65.9034C46.3404 65.714 46.081 65.5 45.8991 65.2614C45.7173 65.0189 45.5772 64.8182 45.4787 64.6591H45.3651V69.2727H44.0241ZM45.3423 61.6364C45.3423 62.2955 45.4389 62.8769 45.6321 63.3807C45.8253 63.8807 46.1075 64.2727 46.4787 64.5568C46.8499 64.8371 47.3045 64.9773 47.8423 64.9773C48.4029 64.9773 48.8707 64.8295 49.2457 64.5341C49.6245 64.2348 49.9086 63.8333 50.098 63.3295C50.2912 62.822 50.3878 62.2576 50.3878 61.6364C50.3878 61.0227 50.2931 60.4697 50.1037 59.9773C49.9181 59.4811 49.6359 59.089 49.2571 58.8011C48.8821 58.5095 48.4105 58.3636 47.8423 58.3636C47.2969 58.3636 46.8385 58.5019 46.4673 58.7784C46.0961 59.0511 45.8158 59.4337 45.6264 59.9261C45.437 60.4148 45.3423 60.9848 45.3423 61.6364ZM57.4332 66.1818C56.5923 66.1818 55.867 65.9962 55.2571 65.625C54.651 65.25 54.1832 64.7273 53.8537 64.0568C53.5279 63.3826 53.3651 62.5985 53.3651 61.7045C53.3651 60.8106 53.5279 60.0227 53.8537 59.3409C54.1832 58.6553 54.6416 58.1212 55.2287 57.7386C55.8196 57.3523 56.509 57.1591 57.2969 57.1591C57.7514 57.1591 58.2003 57.2348 58.6435 57.3864C59.0866 57.5379 59.4901 57.7841 59.8537 58.125C60.2173 58.4621 60.5071 58.9091 60.723 59.4659C60.9389 60.0227 61.0469 60.7083 61.0469 61.5227V62.0909H54.3196V60.9318H59.6832C59.6832 60.4394 59.5848 60 59.3878 59.6136C59.1946 59.2273 58.9181 58.9223 58.5582 58.6989C58.2022 58.4754 57.7817 58.3636 57.2969 58.3636C56.7628 58.3636 56.3007 58.4962 55.9105 58.7614C55.5241 59.0227 55.2268 59.3636 55.0185 59.7841C54.8101 60.2045 54.706 60.6553 54.706 61.1364V61.9091C54.706 62.5682 54.8196 63.1269 55.0469 63.5852C55.2779 64.0398 55.598 64.3864 56.0071 64.625C56.4162 64.8598 56.8916 64.9773 57.4332 64.9773C57.7855 64.9773 58.1037 64.928 58.3878 64.8295C58.6757 64.7273 58.9238 64.5758 59.1321 64.375C59.3404 64.1705 59.5014 63.9167 59.6151 63.6136L60.9105 63.9773C60.7741 64.4167 60.545 64.803 60.223 65.1364C59.901 65.4659 59.5033 65.7235 59.0298 65.9091C58.5563 66.0909 58.0241 66.1818 57.4332 66.1818ZM66.7457 66.1818C65.9048 66.1818 65.1795 65.9962 64.5696 65.625C63.9635 65.25 63.4957 64.7273 63.1662 64.0568C62.8404 63.3826 62.6776 62.5985 62.6776 61.7045C62.6776 60.8106 62.8404 60.0227 63.1662 59.3409C63.4957 58.6553 63.9541 58.1212 64.5412 57.7386C65.1321 57.3523 65.8215 57.1591 66.6094 57.1591C67.0639 57.1591 67.5128 57.2348 67.956 57.3864C68.3991 57.5379 68.8026 57.7841 69.1662 58.125C69.5298 58.4621 69.8196 58.9091 70.0355 59.4659C70.2514 60.0227 70.3594 60.7083 70.3594 61.5227V62.0909H63.6321V60.9318H68.9957C68.9957 60.4394 68.8973 60 68.7003 59.6136C68.5071 59.2273 68.2306 58.9223 67.8707 58.6989C67.5147 58.4754 67.0942 58.3636 66.6094 58.3636C66.0753 58.3636 65.6132 58.4962 65.223 58.7614C64.8366 59.0227 64.5393 59.3636 64.331 59.7841C64.1226 60.2045 64.0185 60.6553 64.0185 61.1364V61.9091C64.0185 62.5682 64.1321 63.1269 64.3594 63.5852C64.5904 64.0398 64.9105 64.3864 65.3196 64.625C65.7287 64.8598 66.2041 64.9773 66.7457 64.9773C67.098 64.9773 67.4162 64.928 67.7003 64.8295C67.9882 64.7273 68.2363 64.5758 68.4446 64.375C68.6529 64.1705 68.8139 63.9167 68.9276 63.6136L70.223 63.9773C70.0866 64.4167 69.8575 64.803 69.5355 65.1364C69.2135 65.4659 68.8158 65.7235 68.3423 65.9091C67.8688 66.0909 67.3366 66.1818 66.7457 66.1818ZM72.3991 66V57.2727H75.9673C76.9067 57.2727 77.6529 57.4848 78.206 57.9091C78.759 58.3333 79.0355 58.8939 79.0355 59.5909C79.0355 60.1212 78.8783 60.5322 78.5639 60.8239C78.2495 61.1117 77.8461 61.3068 77.3537 61.4091C77.6757 61.4545 77.9882 61.5682 78.2912 61.75C78.598 61.9318 78.8518 62.1818 79.0526 62.5C79.2533 62.8144 79.3537 63.2008 79.3537 63.6591C79.3537 64.1061 79.2401 64.5057 79.0128 64.858C78.7855 65.2102 78.4598 65.4886 78.0355 65.6932C77.6113 65.8977 77.1037 66 76.5128 66H72.3991ZM73.6719 64.7727H76.5128C76.9749 64.7727 77.3366 64.6629 77.598 64.4432C77.8594 64.2235 77.9901 63.9242 77.9901 63.5455C77.9901 63.0947 77.8594 62.7405 77.598 62.483C77.3366 62.2216 76.9749 62.0909 76.5128 62.0909H73.6719V64.7727ZM73.6719 60.9318H75.9673C76.3272 60.9318 76.6359 60.8826 76.8935 60.7841C77.151 60.6818 77.348 60.5379 77.4844 60.3523C77.6245 60.1629 77.6946 59.9394 77.6946 59.6818C77.6946 59.3144 77.5412 59.0265 77.2344 58.8182C76.9276 58.6061 76.5052 58.5 75.9673 58.5H73.6719V60.9318ZM89.429 66.1818C88.6411 66.1818 87.9498 65.9943 87.3551 65.6193C86.7642 65.2443 86.3021 64.7197 85.9688 64.0455C85.6392 63.3712 85.4744 62.5833 85.4744 61.6818C85.4744 60.7727 85.6392 59.9792 85.9688 59.3011C86.3021 58.6231 86.7642 58.0966 87.3551 57.7216C87.9498 57.3466 88.6411 57.1591 89.429 57.1591C90.2169 57.1591 90.9063 57.3466 91.4972 57.7216C92.0919 58.0966 92.554 58.6231 92.8835 59.3011C93.2169 59.9792 93.3835 60.7727 93.3835 61.6818C93.3835 62.5833 93.2169 63.3712 92.8835 64.0455C92.554 64.7197 92.0919 65.2443 91.4972 65.6193C90.9063 65.9943 90.2169 66.1818 89.429 66.1818ZM89.429 64.9773C90.0275 64.9773 90.5199 64.8239 90.9062 64.517C91.2926 64.2102 91.5786 63.8068 91.7642 63.3068C91.9498 62.8068 92.0426 62.2652 92.0426 61.6818C92.0426 61.0985 91.9498 60.5549 91.7642 60.0511C91.5786 59.5473 91.2926 59.1402 90.9062 58.8295C90.5199 58.5189 90.0275 58.3636 89.429 58.3636C88.8305 58.3636 88.3381 58.5189 87.9517 58.8295C87.5653 59.1402 87.2794 59.5473 87.0938 60.0511C86.9081 60.5549 86.8153 61.0985 86.8153 61.6818C86.8153 62.2652 86.9081 62.8068 87.0938 63.3068C87.2794 63.8068 87.5653 64.2102 87.9517 64.517C88.3381 64.8239 88.8305 64.9773 89.429 64.9773ZM94.2898 58.5227V57.2727H101.381V58.5227H98.517V66H97.1761V58.5227H94.2898ZM111.382 66.1818C110.564 66.1818 109.859 65.9886 109.268 65.6023C108.678 65.2159 108.223 64.6837 107.905 64.0057C107.587 63.3277 107.428 62.553 107.428 61.6818C107.428 60.7955 107.59 60.0133 107.916 59.3352C108.246 58.6534 108.704 58.1212 109.291 57.7386C109.882 57.3523 110.571 57.1591 111.359 57.1591C111.973 57.1591 112.526 57.2727 113.018 57.5C113.511 57.7273 113.914 58.0455 114.229 58.4545C114.543 58.8636 114.738 59.3409 114.814 59.8864H113.473C113.371 59.4886 113.143 59.1364 112.791 58.8295C112.443 58.5189 111.973 58.3636 111.382 58.3636C110.859 58.3636 110.401 58.5 110.007 58.7727C109.617 59.0417 109.312 59.4223 109.092 59.9148C108.876 60.4034 108.768 60.9773 108.768 61.6364C108.768 62.3106 108.875 62.8977 109.087 63.3977C109.303 63.8977 109.606 64.286 109.996 64.5625C110.39 64.839 110.852 64.9773 111.382 64.9773C111.731 64.9773 112.047 64.9167 112.331 64.7955C112.615 64.6742 112.856 64.5 113.053 64.2727C113.25 64.0455 113.39 63.7727 113.473 63.4545H114.814C114.738 63.9697 114.551 64.4337 114.251 64.8466C113.956 65.2557 113.564 65.5814 113.075 65.8239C112.59 66.0625 112.026 66.1818 111.382 66.1818ZM116.001 66V64.75H116.32C116.581 64.75 116.799 64.6989 116.973 64.5966C117.147 64.4905 117.287 64.3068 117.393 64.0455C117.503 63.7803 117.587 63.4129 117.643 62.9432C117.704 62.4697 117.748 61.8674 117.774 61.1364L117.933 57.2727H123.751V66H122.411V58.5227H119.206L119.07 61.6364C119.039 62.3523 118.975 62.983 118.876 63.5284C118.782 64.0701 118.636 64.5246 118.439 64.892C118.246 65.2595 117.988 65.536 117.666 65.7216C117.344 65.9072 116.941 66 116.456 66H116.001ZM126.763 69.2727C126.536 69.2727 126.333 69.2538 126.155 69.2159C125.977 69.1818 125.854 69.1477 125.786 69.1136L126.126 67.9318C126.452 68.0152 126.74 68.0455 126.99 68.0227C127.24 68 127.462 67.8883 127.655 67.6875C127.852 67.4905 128.032 67.1705 128.195 66.7273L128.445 66.0455L125.217 57.2727H126.672L129.081 64.2273H129.172L131.581 57.2727H133.036L129.331 67.2727C129.164 67.7235 128.958 68.0966 128.712 68.392C128.465 68.6913 128.179 68.9129 127.854 69.0568C127.532 69.2008 127.168 69.2727 126.763 69.2727ZM141.267 57.2727V66H139.926V57.2727H141.267ZM140.744 61.4318V62.6818C140.441 62.7955 140.14 62.8958 139.841 62.983C139.542 63.0663 139.227 63.1326 138.898 63.1818C138.568 63.2273 138.206 63.25 137.812 63.25C136.824 63.25 136.03 62.983 135.432 62.4489C134.837 61.9148 134.54 61.1136 134.54 60.0455V57.25H135.881V60.0455C135.881 60.4924 135.966 60.8598 136.136 61.1477C136.307 61.4356 136.538 61.6496 136.83 61.7898C137.121 61.9299 137.449 62 137.812 62C138.381 62 138.894 61.9489 139.352 61.8466C139.814 61.7405 140.278 61.6023 140.744 61.4318ZM146.295 66.2045C145.742 66.2045 145.241 66.1004 144.79 65.892C144.339 65.6799 143.981 65.375 143.716 64.9773C143.451 64.5758 143.318 64.0909 143.318 63.5227C143.318 63.0227 143.417 62.6174 143.614 62.3068C143.811 61.9924 144.074 61.7462 144.403 61.5682C144.733 61.3902 145.097 61.2576 145.494 61.1705C145.896 61.0795 146.299 61.0076 146.705 60.9545C147.235 60.8864 147.665 60.8352 147.994 60.8011C148.328 60.7633 148.57 60.7008 148.722 60.6136C148.877 60.5265 148.955 60.375 148.955 60.1591V60.1136C148.955 59.553 148.801 59.1174 148.494 58.8068C148.191 58.4962 147.731 58.3409 147.114 58.3409C146.473 58.3409 145.972 58.4811 145.608 58.7614C145.244 59.0417 144.989 59.3409 144.841 59.6591L143.568 59.2045C143.795 58.6742 144.098 58.2614 144.477 57.9659C144.86 57.6667 145.277 57.4583 145.727 57.3409C146.182 57.2197 146.629 57.1591 147.068 57.1591C147.348 57.1591 147.67 57.1932 148.034 57.2614C148.402 57.3258 148.756 57.4602 149.097 57.6648C149.441 57.8693 149.727 58.178 149.955 58.5909C150.182 59.0038 150.295 59.5568 150.295 60.25V66H148.955V64.8182H148.886C148.795 65.0076 148.644 65.2102 148.432 65.4261C148.22 65.642 147.938 65.8258 147.585 65.9773C147.233 66.1288 146.803 66.2045 146.295 66.2045ZM146.5 65C147.03 65 147.477 64.8958 147.841 64.6875C148.208 64.4792 148.485 64.2102 148.67 63.8807C148.86 63.5511 148.955 63.2045 148.955 62.8409V61.6136C148.898 61.6818 148.773 61.7443 148.58 61.8011C148.39 61.8542 148.17 61.9015 147.92 61.9432C147.674 61.9811 147.434 62.0152 147.199 62.0455C146.968 62.072 146.78 62.0947 146.636 62.1136C146.288 62.1591 145.962 62.233 145.659 62.3352C145.36 62.4337 145.117 62.5833 144.932 62.7841C144.75 62.9811 144.659 63.25 144.659 63.5909C144.659 64.0568 144.831 64.4091 145.176 64.6477C145.525 64.8826 145.966 65 146.5 65ZM154.084 64.0227L158.288 57.2727H159.834V66H158.493V59.25L154.311 66H152.743V57.2727H154.084V64.0227ZM157.402 54.3636H158.652C158.652 54.9773 158.44 55.4792 158.016 55.8693C157.591 56.2595 157.016 56.4545 156.288 56.4545C155.572 56.4545 155.002 56.2595 154.578 55.8693C154.158 55.4792 153.947 54.9773 153.947 54.3636H155.197C155.197 54.6591 155.279 54.9186 155.442 55.142C155.608 55.3655 155.891 55.4773 156.288 55.4773C156.686 55.4773 156.97 55.3655 157.141 55.142C157.315 54.9186 157.402 54.6591 157.402 54.3636ZM168.131 61.0227V62.2727H163.312V61.0227H168.131ZM163.631 57.2727V66H162.29V57.2727H163.631ZM169.153 57.2727V66H167.812V57.2727H169.153ZM175.148 66.1818C174.36 66.1818 173.669 65.9943 173.074 65.6193C172.483 65.2443 172.021 64.7197 171.688 64.0455C171.358 63.3712 171.193 62.5833 171.193 61.6818C171.193 60.7727 171.358 59.9792 171.688 59.3011C172.021 58.6231 172.483 58.0966 173.074 57.7216C173.669 57.3466 174.36 57.1591 175.148 57.1591C175.936 57.1591 176.625 57.3466 177.216 57.7216C177.811 58.0966 178.273 58.6231 178.602 59.3011C178.936 59.9792 179.102 60.7727 179.102 61.6818C179.102 62.5833 178.936 63.3712 178.602 64.0455C178.273 64.7197 177.811 65.2443 177.216 65.6193C176.625 65.9943 175.936 66.1818 175.148 66.1818ZM175.148 64.9773C175.746 64.9773 176.239 64.8239 176.625 64.517C177.011 64.2102 177.297 63.8068 177.483 63.3068C177.669 62.8068 177.761 62.2652 177.761 61.6818C177.761 61.0985 177.669 60.5549 177.483 60.0511C177.297 59.5473 177.011 59.1402 176.625 58.8295C176.239 58.5189 175.746 58.3636 175.148 58.3636C174.549 58.3636 174.057 58.5189 173.67 58.8295C173.284 59.1402 172.998 59.5473 172.812 60.0511C172.627 60.5549 172.534 61.0985 172.534 61.6818C172.534 62.2652 172.627 62.8068 172.812 63.3068C172.998 63.8068 173.284 64.2102 173.67 64.517C174.057 64.8239 174.549 64.9773 175.148 64.9773ZM186.536 57.2727V58.5227H182.49V66H181.149V57.2727H186.536ZM191.585 66.1818C190.797 66.1818 190.106 65.9943 189.511 65.6193C188.92 65.2443 188.458 64.7197 188.125 64.0455C187.795 63.3712 187.631 62.5833 187.631 61.6818C187.631 60.7727 187.795 59.9792 188.125 59.3011C188.458 58.6231 188.92 58.0966 189.511 57.7216C190.106 57.3466 190.797 57.1591 191.585 57.1591C192.373 57.1591 193.063 57.3466 193.653 57.7216C194.248 58.0966 194.71 58.6231 195.04 59.3011C195.373 59.9792 195.54 60.7727 195.54 61.6818C195.54 62.5833 195.373 63.3712 195.04 64.0455C194.71 64.7197 194.248 65.2443 193.653 65.6193C193.063 65.9943 192.373 66.1818 191.585 66.1818ZM191.585 64.9773C192.184 64.9773 192.676 64.8239 193.062 64.517C193.449 64.2102 193.735 63.8068 193.92 63.3068C194.106 62.8068 194.199 62.2652 194.199 61.6818C194.199 61.0985 194.106 60.5549 193.92 60.0511C193.735 59.5473 193.449 59.1402 193.062 58.8295C192.676 58.5189 192.184 58.3636 191.585 58.3636C190.987 58.3636 190.494 58.5189 190.108 58.8295C189.722 59.1402 189.436 59.5473 189.25 60.0511C189.064 60.5549 188.972 61.0985 188.972 61.6818C188.972 62.2652 189.064 62.8068 189.25 63.3068C189.436 63.8068 189.722 64.2102 190.108 64.517C190.494 64.8239 190.987 64.9773 191.585 64.9773ZM29.2727 90.1818C28.4545 90.1818 27.75 89.9886 27.1591 89.6023C26.5682 89.2159 26.1136 88.6837 25.7955 88.0057C25.4773 87.3277 25.3182 86.553 25.3182 85.6818C25.3182 84.7955 25.4811 84.0133 25.8068 83.3352C26.1364 82.6534 26.5947 82.1212 27.1818 81.7386C27.7727 81.3523 28.4621 81.1591 29.25 81.1591C29.8636 81.1591 30.4167 81.2727 30.9091 81.5C31.4015 81.7273 31.8049 82.0455 32.1193 82.4545C32.4337 82.8636 32.6288 83.3409 32.7045 83.8864H31.3636C31.2614 83.4886 31.0341 83.1364 30.6818 82.8295C30.3333 82.5189 29.8636 82.3636 29.2727 82.3636C28.75 82.3636 28.2917 82.5 27.8977 82.7727C27.5076 83.0417 27.2027 83.4223 26.983 83.9148C26.767 84.4034 26.6591 84.9773 26.6591 85.6364C26.6591 86.3106 26.7652 86.8977 26.9773 87.3977C27.1932 87.8977 27.4962 88.286 27.8864 88.5625C28.2803 88.839 28.7424 88.9773 29.2727 88.9773C29.6212 88.9773 29.9375 88.9167 30.2216 88.7955C30.5057 88.6742 30.7462 88.5 30.9432 88.2727C31.1402 88.0455 31.2803 87.7727 31.3636 87.4545H32.7045C32.6288 87.9697 32.4413 88.4337 32.142 88.8466C31.8466 89.2557 31.4545 89.5814 30.9659 89.8239C30.4811 90.0625 29.9167 90.1818 29.2727 90.1818ZM34.6648 90V81.2727H41.5284V90H40.1875V82.5227H36.0057V90H34.6648ZM47.5227 90.1818C46.7348 90.1818 46.0436 89.9943 45.4489 89.6193C44.858 89.2443 44.3958 88.7197 44.0625 88.0455C43.733 87.3712 43.5682 86.5833 43.5682 85.6818C43.5682 84.7727 43.733 83.9792 44.0625 83.3011C44.3958 82.6231 44.858 82.0966 45.4489 81.7216C46.0436 81.3466 46.7348 81.1591 47.5227 81.1591C48.3106 81.1591 49 81.3466 49.5909 81.7216C50.1856 82.0966 50.6477 82.6231 50.9773 83.3011C51.3106 83.9792 51.4773 84.7727 51.4773 85.6818C51.4773 86.5833 51.3106 87.3712 50.9773 88.0455C50.6477 88.7197 50.1856 89.2443 49.5909 89.6193C49 89.9943 48.3106 90.1818 47.5227 90.1818ZM47.5227 88.9773C48.1212 88.9773 48.6136 88.8239 49 88.517C49.3864 88.2102 49.6723 87.8068 49.858 87.3068C50.0436 86.8068 50.1364 86.2652 50.1364 85.6818C50.1364 85.0985 50.0436 84.5549 49.858 84.0511C49.6723 83.5473 49.3864 83.1402 49 82.8295C48.6136 82.5189 48.1212 82.3636 47.5227 82.3636C46.9242 82.3636 46.4318 82.5189 46.0455 82.8295C45.6591 83.1402 45.3731 83.5473 45.1875 84.0511C45.0019 84.5549 44.9091 85.0985 44.9091 85.6818C44.9091 86.2652 45.0019 86.8068 45.1875 87.3068C45.3731 87.8068 45.6591 88.2102 46.0455 88.517C46.4318 88.8239 46.9242 88.9773 47.5227 88.9773ZM59.3651 85.0227V86.2727H54.5469V85.0227H59.3651ZM54.8651 81.2727V90H53.5241V81.2727H54.8651ZM60.3878 81.2727V90H59.0469V81.2727H60.3878ZM66.3821 90.1818C65.5639 90.1818 64.8594 89.9886 64.2685 89.6023C63.6776 89.2159 63.223 88.6837 62.9048 88.0057C62.5866 87.3277 62.4276 86.553 62.4276 85.6818C62.4276 84.7955 62.5904 84.0133 62.9162 83.3352C63.2457 82.6534 63.7041 82.1212 64.2912 81.7386C64.8821 81.3523 65.5715 81.1591 66.3594 81.1591C66.973 81.1591 67.526 81.2727 68.0185 81.5C68.5109 81.7273 68.9143 82.0455 69.2287 82.4545C69.5431 82.8636 69.7382 83.3409 69.8139 83.8864H68.473C68.3707 83.4886 68.1435 83.1364 67.7912 82.8295C67.4427 82.5189 66.973 82.3636 66.3821 82.3636C65.8594 82.3636 65.401 82.5 65.0071 82.7727C64.617 83.0417 64.312 83.4223 64.0923 83.9148C63.8764 84.4034 63.7685 84.9773 63.7685 85.6364C63.7685 86.3106 63.8745 86.8977 64.0866 87.3977C64.3026 87.8977 64.6056 88.286 64.9957 88.5625C65.3897 88.839 65.8518 88.9773 66.3821 88.9773C66.7306 88.9773 67.0469 88.9167 67.331 88.7955C67.6151 88.6742 67.8556 88.5 68.0526 88.2727C68.2495 88.0455 68.3897 87.7727 68.473 87.4545H69.8139C69.7382 87.9697 69.5507 88.4337 69.2514 88.8466C68.956 89.2557 68.5639 89.5814 68.0753 89.8239C67.5904 90.0625 67.026 90.1818 66.3821 90.1818ZM73.1151 88.0227L77.3196 81.2727H78.8651V90H77.5241V83.25L73.3423 90H71.7741V81.2727H73.1151V88.0227ZM81.321 93.2727V81.2727H82.6165V82.6591H82.7756C82.8741 82.5076 83.0104 82.3144 83.1847 82.0795C83.3627 81.8409 83.6165 81.6288 83.946 81.4432C84.2794 81.2538 84.7301 81.1591 85.2983 81.1591C86.0331 81.1591 86.6809 81.3428 87.2415 81.7102C87.8021 82.0777 88.2396 82.5985 88.554 83.2727C88.8684 83.947 89.0256 84.7424 89.0256 85.6591C89.0256 86.5833 88.8684 87.3845 88.554 88.0625C88.2396 88.7367 87.804 89.2595 87.2472 89.6307C86.6903 89.9981 86.0483 90.1818 85.321 90.1818C84.7604 90.1818 84.3116 90.089 83.9744 89.9034C83.6373 89.714 83.3778 89.5 83.196 89.2614C83.0142 89.0189 82.8741 88.8182 82.7756 88.6591H82.6619V93.2727H81.321ZM82.6392 85.6364C82.6392 86.2955 82.7358 86.8769 82.929 87.3807C83.1222 87.8807 83.4044 88.2727 83.7756 88.5568C84.1468 88.8371 84.6013 88.9773 85.1392 88.9773C85.6998 88.9773 86.1676 88.8295 86.5426 88.5341C86.9214 88.2348 87.2055 87.8333 87.3949 87.3295C87.5881 86.822 87.6847 86.2576 87.6847 85.6364C87.6847 85.0227 87.59 84.4697 87.4006 83.9773C87.215 83.4811 86.9328 83.089 86.554 82.8011C86.179 82.5095 85.7074 82.3636 85.1392 82.3636C84.5938 82.3636 84.1354 82.5019 83.7642 82.7784C83.393 83.0511 83.1127 83.4337 82.9233 83.9261C82.7339 84.4148 82.6392 84.9848 82.6392 85.6364ZM94.6165 90.1818C93.8286 90.1818 93.1373 89.9943 92.5426 89.6193C91.9517 89.2443 91.4896 88.7197 91.1562 88.0455C90.8267 87.3712 90.6619 86.5833 90.6619 85.6818C90.6619 84.7727 90.8267 83.9792 91.1562 83.3011C91.4896 82.6231 91.9517 82.0966 92.5426 81.7216C93.1373 81.3466 93.8286 81.1591 94.6165 81.1591C95.4044 81.1591 96.0938 81.3466 96.6847 81.7216C97.2794 82.0966 97.7415 82.6231 98.071 83.3011C98.4044 83.9792 98.571 84.7727 98.571 85.6818C98.571 86.5833 98.4044 87.3712 98.071 88.0455C97.7415 88.7197 97.2794 89.2443 96.6847 89.6193C96.0938 89.9943 95.4044 90.1818 94.6165 90.1818ZM94.6165 88.9773C95.215 88.9773 95.7074 88.8239 96.0938 88.517C96.4801 88.2102 96.7661 87.8068 96.9517 87.3068C97.1373 86.8068 97.2301 86.2652 97.2301 85.6818C97.2301 85.0985 97.1373 84.5549 96.9517 84.0511C96.7661 83.5473 96.4801 83.1402 96.0938 82.8295C95.7074 82.5189 95.215 82.3636 94.6165 82.3636C94.018 82.3636 93.5256 82.5189 93.1392 82.8295C92.7528 83.1402 92.4669 83.5473 92.2812 84.0511C92.0956 84.5549 92.0028 85.0985 92.0028 85.6818C92.0028 86.2652 92.0956 86.8068 92.2812 87.3068C92.4669 87.8068 92.7528 88.2102 93.1392 88.517C93.5256 88.8239 94.018 88.9773 94.6165 88.9773ZM100.618 90V81.2727H104.186C105.125 81.2727 105.872 81.4848 106.425 81.9091C106.978 82.3333 107.254 82.8939 107.254 83.5909C107.254 84.1212 107.097 84.5322 106.783 84.8239C106.468 85.1117 106.065 85.3068 105.572 85.4091C105.894 85.4545 106.207 85.5682 106.51 85.75C106.817 85.9318 107.071 86.1818 107.271 86.5C107.472 86.8144 107.572 87.2008 107.572 87.6591C107.572 88.1061 107.459 88.5057 107.232 88.858C107.004 89.2102 106.679 89.4886 106.254 89.6932C105.83 89.8977 105.322 90 104.732 90H100.618ZM101.891 88.7727H104.732C105.194 88.7727 105.555 88.6629 105.817 88.4432C106.078 88.2235 106.209 87.9242 106.209 87.5455C106.209 87.0947 106.078 86.7405 105.817 86.483C105.555 86.2216 105.194 86.0909 104.732 86.0909H101.891V88.7727ZM101.891 84.9318H104.186C104.546 84.9318 104.855 84.8826 105.112 84.7841C105.37 84.6818 105.567 84.5379 105.703 84.3523C105.843 84.1629 105.913 83.9394 105.913 83.6818C105.913 83.3144 105.76 83.0265 105.453 82.8182C105.146 82.6061 104.724 82.5 104.186 82.5H101.891V84.9318ZM112.17 90.2045C111.617 90.2045 111.116 90.1004 110.665 89.892C110.214 89.6799 109.856 89.375 109.591 88.9773C109.326 88.5758 109.193 88.0909 109.193 87.5227C109.193 87.0227 109.292 86.6174 109.489 86.3068C109.686 85.9924 109.949 85.7462 110.278 85.5682C110.608 85.3902 110.972 85.2576 111.369 85.1705C111.771 85.0795 112.174 85.0076 112.58 84.9545C113.11 84.8864 113.54 84.8352 113.869 84.8011C114.203 84.7633 114.445 84.7008 114.597 84.6136C114.752 84.5265 114.83 84.375 114.83 84.1591V84.1136C114.83 83.553 114.676 83.1174 114.369 82.8068C114.066 82.4962 113.606 82.3409 112.989 82.3409C112.348 82.3409 111.847 82.4811 111.483 82.7614C111.119 83.0417 110.864 83.3409 110.716 83.6591L109.443 83.2045C109.67 82.6742 109.973 82.2614 110.352 81.9659C110.735 81.6667 111.152 81.4583 111.602 81.3409C112.057 81.2197 112.504 81.1591 112.943 81.1591C113.223 81.1591 113.545 81.1932 113.909 81.2614C114.277 81.3258 114.631 81.4602 114.972 81.6648C115.316 81.8693 115.602 82.178 115.83 82.5909C116.057 83.0038 116.17 83.5568 116.17 84.25V90H114.83V88.8182H114.761C114.67 89.0076 114.519 89.2102 114.307 89.4261C114.095 89.642 113.813 89.8258 113.46 89.9773C113.108 90.1288 112.678 90.2045 112.17 90.2045ZM112.375 89C112.905 89 113.352 88.8958 113.716 88.6875C114.083 88.4792 114.36 88.2102 114.545 87.8807C114.735 87.5511 114.83 87.2045 114.83 86.8409V85.6136C114.773 85.6818 114.648 85.7443 114.455 85.8011C114.265 85.8542 114.045 85.9015 113.795 85.9432C113.549 85.9811 113.309 86.0152 113.074 86.0455C112.843 86.072 112.655 86.0947 112.511 86.1136C112.163 86.1591 111.837 86.233 111.534 86.3352C111.235 86.4337 110.992 86.5833 110.807 86.7841C110.625 86.9811 110.534 87.25 110.534 87.5909C110.534 88.0568 110.706 88.4091 111.051 88.6477C111.4 88.8826 111.841 89 112.375 89ZM124.459 85.0227V86.2727H119.641V85.0227H124.459ZM119.959 81.2727V90H118.618V81.2727H119.959ZM125.482 81.2727V90H124.141V81.2727H125.482ZM129.271 88.0227L133.476 81.2727H135.021V90H133.68V83.25L129.499 90H127.93V81.2727H129.271V88.0227ZM142.727 90V82.5H140.409C139.886 82.5 139.475 82.6212 139.176 82.8636C138.877 83.1061 138.727 83.4394 138.727 83.8636C138.727 84.2803 138.862 84.608 139.131 84.8466C139.403 85.0852 139.777 85.2045 140.25 85.2045H143.068V86.4545H140.25C139.659 86.4545 139.15 86.3504 138.722 86.142C138.294 85.9337 137.964 85.6364 137.733 85.25C137.502 84.8598 137.386 84.3977 137.386 83.8636C137.386 83.3258 137.508 82.8636 137.75 82.4773C137.992 82.0909 138.339 81.7936 138.79 81.5852C139.244 81.3769 139.784 81.2727 140.409 81.2727H144V90H142.727ZM136.909 90L139.386 85.6591H140.841L138.364 90H136.909ZM28.2955 114.205C27.7424 114.205 27.2405 114.1 26.7898 113.892C26.339 113.68 25.9811 113.375 25.7159 112.977C25.4508 112.576 25.3182 112.091 25.3182 111.523C25.3182 111.023 25.4167 110.617 25.6136 110.307C25.8106 109.992 26.0739 109.746 26.4034 109.568C26.733 109.39 27.0966 109.258 27.4943 109.17C27.8958 109.08 28.2992 109.008 28.7045 108.955C29.2348 108.886 29.6648 108.835 29.9943 108.801C30.3277 108.763 30.5701 108.701 30.7216 108.614C30.8769 108.527 30.9545 108.375 30.9545 108.159V108.114C30.9545 107.553 30.8011 107.117 30.4943 106.807C30.1913 106.496 29.7311 106.341 29.1136 106.341C28.4735 106.341 27.9716 106.481 27.608 106.761C27.2443 107.042 26.9886 107.341 26.8409 107.659L25.5682 107.205C25.7955 106.674 26.0985 106.261 26.4773 105.966C26.8598 105.667 27.2765 105.458 27.7273 105.341C28.1818 105.22 28.6288 105.159 29.0682 105.159C29.3485 105.159 29.6705 105.193 30.0341 105.261C30.4015 105.326 30.7557 105.46 31.0966 105.665C31.4413 105.869 31.7273 106.178 31.9545 106.591C32.1818 107.004 32.2955 107.557 32.2955 108.25V114H30.9545V112.818H30.8864C30.7955 113.008 30.6439 113.21 30.4318 113.426C30.2197 113.642 29.9375 113.826 29.5852 113.977C29.233 114.129 28.803 114.205 28.2955 114.205ZM28.5 113C29.0303 113 29.4773 112.896 29.8409 112.688C30.2083 112.479 30.4848 112.21 30.6705 111.881C30.8598 111.551 30.9545 111.205 30.9545 110.841V109.614C30.8977 109.682 30.7727 109.744 30.5795 109.801C30.3902 109.854 30.1705 109.902 29.9205 109.943C29.6742 109.981 29.4337 110.015 29.1989 110.045C28.9678 110.072 28.7803 110.095 28.6364 110.114C28.2879 110.159 27.9621 110.233 27.6591 110.335C27.3598 110.434 27.1174 110.583 26.9318 110.784C26.75 110.981 26.6591 111.25 26.6591 111.591C26.6591 112.057 26.8314 112.409 27.1761 112.648C27.5246 112.883 27.9659 113 28.5 113ZM40.5838 109.023V110.273H35.7656V109.023H40.5838ZM36.0838 105.273V114H34.7429V105.273H36.0838ZM41.6065 105.273V114H40.2656V105.273H41.6065ZM42.8679 106.523V105.273H49.9588V106.523H47.0952V114H45.7543V106.523H42.8679ZM53.2557 112.023L57.4602 105.273H59.0057V114H57.6648V107.25L53.483 114H51.9148V105.273H53.2557V112.023ZM65.0071 114.182C64.1889 114.182 63.4844 113.989 62.8935 113.602C62.3026 113.216 61.848 112.684 61.5298 112.006C61.2116 111.328 61.0526 110.553 61.0526 109.682C61.0526 108.795 61.2154 108.013 61.5412 107.335C61.8707 106.653 62.3291 106.121 62.9162 105.739C63.5071 105.352 64.1965 105.159 64.9844 105.159C65.598 105.159 66.151 105.273 66.6435 105.5C67.1359 105.727 67.5393 106.045 67.8537 106.455C68.1681 106.864 68.3632 107.341 68.4389 107.886H67.098C66.9957 107.489 66.7685 107.136 66.4162 106.83C66.0677 106.519 65.598 106.364 65.0071 106.364C64.4844 106.364 64.026 106.5 63.6321 106.773C63.242 107.042 62.937 107.422 62.7173 107.915C62.5014 108.403 62.3935 108.977 62.3935 109.636C62.3935 110.311 62.4995 110.898 62.7116 111.398C62.9276 111.898 63.2306 112.286 63.6207 112.562C64.0147 112.839 64.4768 112.977 65.0071 112.977C65.3556 112.977 65.6719 112.917 65.956 112.795C66.2401 112.674 66.4806 112.5 66.6776 112.273C66.8745 112.045 67.0147 111.773 67.098 111.455H68.4389C68.3632 111.97 68.1757 112.434 67.8764 112.847C67.581 113.256 67.1889 113.581 66.7003 113.824C66.2154 114.062 65.651 114.182 65.0071 114.182ZM74.0582 114.182C73.2173 114.182 72.492 113.996 71.8821 113.625C71.276 113.25 70.8082 112.727 70.4787 112.057C70.1529 111.383 69.9901 110.598 69.9901 109.705C69.9901 108.811 70.1529 108.023 70.4787 107.341C70.8082 106.655 71.2666 106.121 71.8537 105.739C72.4446 105.352 73.134 105.159 73.9219 105.159C74.3764 105.159 74.8253 105.235 75.2685 105.386C75.7116 105.538 76.1151 105.784 76.4787 106.125C76.8423 106.462 77.1321 106.909 77.348 107.466C77.5639 108.023 77.6719 108.708 77.6719 109.523V110.091H70.9446V108.932H76.3082C76.3082 108.439 76.2098 108 76.0128 107.614C75.8196 107.227 75.5431 106.922 75.1832 106.699C74.8272 106.475 74.4067 106.364 73.9219 106.364C73.3878 106.364 72.9257 106.496 72.5355 106.761C72.1491 107.023 71.8518 107.364 71.6435 107.784C71.4351 108.205 71.331 108.655 71.331 109.136V109.909C71.331 110.568 71.4446 111.127 71.6719 111.585C71.9029 112.04 72.223 112.386 72.6321 112.625C73.0412 112.86 73.5166 112.977 74.0582 112.977C74.4105 112.977 74.7287 112.928 75.0128 112.83C75.3007 112.727 75.5488 112.576 75.7571 112.375C75.9654 112.17 76.1264 111.917 76.2401 111.614L77.5355 111.977C77.3991 112.417 77.17 112.803 76.848 113.136C76.526 113.466 76.1283 113.723 75.6548 113.909C75.1813 114.091 74.6491 114.182 74.0582 114.182ZM84.4844 112.182L87.5298 105.273H88.8026L85.0298 114H83.9389L80.2344 105.273H81.4844L84.4844 112.182ZM81.0526 105.273V114H79.7116V105.273H81.0526ZM87.9162 114V105.273H89.2571V114H87.9162ZM93.0526 112.023L97.2571 105.273H98.8026V114H97.4616V107.25L93.2798 114H91.7116V105.273H93.0526V112.023ZM100.071 106.523V105.273H107.162V106.523H104.298V114H102.957V106.523H100.071ZM110.459 112.023L114.663 105.273H116.209V114H114.868V107.25L110.686 114H109.118V105.273H110.459V112.023ZM118.119 111.773H119.551C119.581 112.167 119.759 112.466 120.085 112.67C120.415 112.875 120.843 112.977 121.369 112.977C121.907 112.977 122.367 112.867 122.75 112.648C123.133 112.424 123.324 112.064 123.324 111.568C123.324 111.277 123.252 111.023 123.108 110.807C122.964 110.587 122.761 110.417 122.5 110.295C122.239 110.174 121.93 110.114 121.574 110.114H120.074V108.909H121.574C122.108 108.909 122.502 108.788 122.756 108.545C123.013 108.303 123.142 108 123.142 107.636C123.142 107.246 123.004 106.934 122.727 106.699C122.451 106.46 122.059 106.341 121.551 106.341C121.04 106.341 120.614 106.456 120.273 106.688C119.932 106.915 119.752 107.208 119.733 107.568H118.324C118.339 107.098 118.483 106.684 118.756 106.324C119.028 105.96 119.4 105.676 119.869 105.472C120.339 105.263 120.877 105.159 121.483 105.159C122.097 105.159 122.629 105.267 123.08 105.483C123.534 105.695 123.884 105.985 124.131 106.352C124.381 106.716 124.506 107.129 124.506 107.591C124.506 108.083 124.367 108.481 124.091 108.784C123.814 109.087 123.468 109.303 123.051 109.432V109.523C123.381 109.545 123.667 109.652 123.909 109.841C124.155 110.027 124.347 110.271 124.483 110.574C124.619 110.873 124.688 111.205 124.688 111.568C124.688 112.098 124.545 112.561 124.261 112.955C123.977 113.345 123.587 113.648 123.091 113.864C122.595 114.076 122.028 114.182 121.392 114.182C120.775 114.182 120.222 114.081 119.733 113.881C119.244 113.676 118.856 113.394 118.568 113.034C118.284 112.67 118.134 112.25 118.119 111.773ZM131.344 112.182L134.389 105.273H135.662L131.889 114H130.798L127.094 105.273H128.344L131.344 112.182ZM127.912 105.273V114H126.571V105.273H127.912ZM134.776 114V105.273H136.116V114H134.776ZM141.139 114.205C140.586 114.205 140.084 114.1 139.634 113.892C139.183 113.68 138.825 113.375 138.56 112.977C138.295 112.576 138.162 112.091 138.162 111.523C138.162 111.023 138.26 110.617 138.457 110.307C138.654 109.992 138.918 109.746 139.247 109.568C139.577 109.39 139.94 109.258 140.338 109.17C140.74 109.08 141.143 109.008 141.548 108.955C142.079 108.886 142.509 108.835 142.838 108.801C143.171 108.763 143.414 108.701 143.565 108.614C143.721 108.527 143.798 108.375 143.798 108.159V108.114C143.798 107.553 143.645 107.117 143.338 106.807C143.035 106.496 142.575 106.341 141.957 106.341C141.317 106.341 140.815 106.481 140.452 106.761C140.088 107.042 139.832 107.341 139.685 107.659L138.412 107.205C138.639 106.674 138.942 106.261 139.321 105.966C139.704 105.667 140.12 105.458 140.571 105.341C141.026 105.22 141.473 105.159 141.912 105.159C142.192 105.159 142.514 105.193 142.878 105.261C143.245 105.326 143.599 105.46 143.94 105.665C144.285 105.869 144.571 106.178 144.798 106.591C145.026 107.004 145.139 107.557 145.139 108.25V114H143.798V112.818H143.73C143.639 113.008 143.488 113.21 143.276 113.426C143.063 113.642 142.781 113.826 142.429 113.977C142.077 114.129 141.647 114.205 141.139 114.205ZM141.344 113C141.874 113 142.321 112.896 142.685 112.688C143.052 112.479 143.329 112.21 143.514 111.881C143.704 111.551 143.798 111.205 143.798 110.841V109.614C143.741 109.682 143.616 109.744 143.423 109.801C143.234 109.854 143.014 109.902 142.764 109.943C142.518 109.981 142.277 110.015 142.043 110.045C141.812 110.072 141.624 110.095 141.48 110.114C141.132 110.159 140.806 110.233 140.503 110.335C140.204 110.434 139.961 110.583 139.776 110.784C139.594 110.981 139.503 111.25 139.503 111.591C139.503 112.057 139.675 112.409 140.02 112.648C140.368 112.883 140.81 113 141.344 113ZM148.564 114.091C148.284 114.091 148.043 113.991 147.842 113.79C147.642 113.589 147.541 113.348 147.541 113.068C147.541 112.788 147.642 112.547 147.842 112.347C148.043 112.146 148.284 112.045 148.564 112.045C148.844 112.045 149.085 112.146 149.286 112.347C149.486 112.547 149.587 112.788 149.587 113.068C149.587 113.254 149.539 113.424 149.445 113.58C149.354 113.735 149.231 113.86 149.075 113.955C148.924 114.045 148.753 114.091 148.564 114.091Z" fill="#E0E0E0"/>
</svg>
