<svg width="25" height="24" viewBox="0 0 25 24" fill="none" xmlns="http://www.w3.org/2000/svg">
<g id="Social">
<g id="Vector">
<path fill-rule="evenodd" clip-rule="evenodd" d="M16.25 10.3229C15.269 11.3039 13.9064 11.9216 12.3986 11.9216C10.9089 11.9216 9.52825 11.3039 8.54724 10.3229C7.56623 9.34187 6.94856 7.97936 6.94856 6.47152C6.94856 4.96368 7.56623 3.60117 8.54724 2.62016C9.52825 1.63915 10.8907 1.02148 12.3986 1.02148C13.9064 1.02148 15.269 1.63915 16.25 2.62016C17.231 3.60117 17.8487 4.96368 17.8487 6.47152C17.8487 7.97936 17.231 9.34187 16.25 10.3229ZM12.3986 3.98267C11.7264 3.98267 11.1088 4.25517 10.6546 4.70934C10.2186 5.16351 9.92791 5.78118 9.92791 6.45335C9.92791 7.12552 10.2004 7.74319 10.6546 8.19736C11.0906 8.65153 11.7083 8.92404 12.3986 8.92404C13.0708 8.92404 13.6885 8.65153 14.1426 8.19736C14.5968 7.76136 14.8693 7.14369 14.8693 6.45335C14.8693 5.78118 14.5968 5.16351 14.1426 4.70934C13.7066 4.25517 13.0889 3.98267 12.3986 3.98267Z" fill="#BDBDBD"/>
<path d="M18.1394 11.9397L19.7381 14.1198C19.8289 14.2288 19.8107 14.3741 19.6654 14.4649C18.321 15.5731 16.7587 16.2998 15.1237 16.6813L18.5027 22.64C18.5936 22.8216 18.4845 23.0215 18.2847 23.0215H14.9783C14.8693 23.0215 14.7785 22.9488 14.7422 22.858L12.3805 17.5896L10.0188 22.858C9.98246 22.967 9.89163 23.0215 9.78263 23.0215H6.47626C6.29459 23.0215 6.16742 22.8035 6.25826 22.64L9.63729 16.6813C8.00227 16.2998 6.43992 15.5549 5.09558 14.4649C5.00474 14.3741 4.98658 14.2288 5.05924 14.1198L6.65793 11.9397C6.74876 11.8307 6.93043 11.8126 7.03943 11.9034C8.54728 13.1933 10.4003 14.0289 12.3987 14.0289C14.397 14.0289 16.25 13.1933 17.7579 11.9034C17.8669 11.7944 18.0485 11.8126 18.1394 11.9397Z" fill="#BDBDBD"/>
</g>
</g>
</svg>
