<svg width="20" height="20" viewBox="0 0 20 20" fill="none" xmlns="http://www.w3.org/2000/svg">
<g id="Crypto icons" clip-path="url(#clip0_590_5987)">
<path id="Vector" d="M10 20C15.5228 20 20 15.5228 20 10C20 4.47715 15.5228 0 10 0C4.47715 0 0 4.47715 0 10C0 15.5228 4.47715 20 10 20Z" fill="#EB322A"/>
<path id="Vector_2" fill-rule="evenodd" clip-rule="evenodd" d="M4.06294 3.97788C4.1528 3.86583 4.29584 3.81057 4.43769 3.83308L14.6022 5.4465C14.6889 5.46025 14.7686 5.50209 14.8291 5.56558L17.2862 8.14351C17.336 8.19449 17.3727 8.25916 17.3897 8.3326C17.4083 8.41323 17.4018 8.49869 17.3695 8.57642C17.3562 8.60846 17.3385 8.63919 17.3164 8.66773C17.3141 8.67077 17.3117 8.67378 17.3092 8.67675L9.92891 17.7509C9.83927 17.8611 9.69792 17.9155 9.55753 17.8938C9.41714 17.8721 9.29879 17.7776 9.24657 17.6455L4.00297 4.37513C3.95019 4.24155 3.97308 4.08993 4.06294 3.97788ZM16.1735 8.13563L14.5576 6.44023L11.9697 8.72847L16.1735 8.13563ZM13.7166 6.11594L5.74938 4.8513L10.7171 8.76814L13.7166 6.11594ZM11.0602 9.66465L16.0465 8.96145L10.2303 16.1125L11.0602 9.66465ZM9.44267 15.9648L5.32013 5.53162L10.282 9.44386L9.44267 15.9648Z" fill="white"/>
</g>
<defs>
<clipPath id="clip0_590_5987">
<rect width="20" height="20" fill="white"/>
</clipPath>
</defs>
</svg>
