<svg width="20" height="20" viewBox="0 0 20 20" fill="none" xmlns="http://www.w3.org/2000/svg">
<g id="Crypto icons" clip-path="url(#clip0_590_6004)">
<path id="Vector" fill-rule="evenodd" clip-rule="evenodd" d="M4.35571 1.99902H15.8755C16.1504 1.99902 16.4043 2.14606 16.5413 2.38462L19.8975 8.22518C20.0716 8.52807 20.0199 8.91036 19.7716 9.15598L10.5336 18.2957C10.2343 18.5918 9.75301 18.5918 9.45375 18.2957L0.22823 9.16832C-0.0257953 8.917 -0.073363 8.52357 0.113435 8.21878L3.70094 2.36588C3.84066 2.13794 4.08859 1.99902 4.35571 1.99902ZM14.3881 4.60663V6.24542H11.1065V7.38162C13.4113 7.50305 15.1404 8.00173 15.1532 8.59946V9.84557C15.1403 10.4433 13.4113 10.942 11.1065 11.0634V13.8518H8.92758V11.0634C6.62284 10.942 4.89369 10.4433 4.88089 9.84557L4.88093 8.59946C4.89377 8.00173 6.62284 7.50305 8.92758 7.38162V6.24542H5.64604V4.60663H14.3881ZM10.017 10.2073C12.4766 10.2073 14.5324 9.78566 15.0354 9.22253C14.6088 8.745 13.0656 8.36915 11.1065 8.26593V9.45556C10.7554 9.47406 10.3909 9.48381 10.017 9.48381C9.64322 9.48381 9.27873 9.47406 8.92758 9.45556V8.26593C6.96846 8.36915 5.42528 8.745 4.99865 9.22253C5.50174 9.78566 7.55752 10.2073 10.017 10.2073Z" fill="#009393"/>
<path id="Vector_2" fill-rule="evenodd" clip-rule="evenodd" d="M14.3881 4.60742V6.24621H11.1065V7.38242C13.4113 7.50384 15.1404 8.00252 15.1533 8.60025L15.1532 9.84636C15.1404 10.4441 13.4113 10.9428 11.1065 11.0642V13.8526H8.92761V11.0642C6.62287 10.9428 4.89372 10.4441 4.88092 9.84636L4.88096 8.60025C4.8938 8.00252 6.62287 7.50384 8.92761 7.38242V6.24621H5.64607V4.60742H14.3881ZM15.0355 9.22333C14.5324 9.78645 12.4766 10.2081 10.0171 10.2081C7.55754 10.2081 5.50177 9.78645 4.99867 9.22333C5.4253 8.74579 6.96849 8.36994 8.92761 8.26672V9.45636C9.27876 9.47485 9.64325 9.4846 10.0171 9.4846C10.3909 9.4846 10.7554 9.47485 11.1065 9.45636V8.26672C13.0657 8.36994 14.6088 8.74579 15.0355 9.22333Z" fill="white"/>
<path id="Vector_3" d="M14.9999 20C17.7614 20 19.9999 17.7614 19.9999 15C19.9999 12.2386 17.7614 10 14.9999 10C12.2385 10 9.99994 12.2386 9.99994 15C9.99994 17.7614 12.2385 20 14.9999 20Z" fill="#EB322A"/>
<path id="Vector_4" fill-rule="evenodd" clip-rule="evenodd" d="M12.0433 12.073C12.0877 12.0177 12.1583 11.9904 12.2284 12.0015L17.2477 12.7983C17.2905 12.8051 17.3298 12.8257 17.3597 12.8571L18.573 14.13C18.5961 14.1536 18.6134 14.183 18.6224 14.2165C18.6255 14.2278 18.6275 14.2394 18.6285 14.2511C18.6311 14.2805 18.627 14.3091 18.6175 14.3354C18.6101 14.3557 18.5993 14.3751 18.585 14.3927L14.94 18.8743C14.8957 18.9287 14.8259 18.9555 14.7566 18.9448C14.6873 18.9341 14.6288 18.8874 14.6031 18.8222L12.0137 12.2692C11.9877 12.2033 11.999 12.1284 12.0433 12.073ZM18.0236 14.1262L17.2256 13.289L15.9477 14.4189L18.0236 14.1262ZM16.8104 13.1288L12.8761 12.5043L15.3292 14.4385L16.8104 13.1288ZM15.4986 14.8812L17.9609 14.534L15.0888 18.0652L15.4986 14.8812ZM14.6999 17.9923L12.6642 12.8403L15.1143 14.7722L14.6999 17.9923Z" fill="white"/>
</g>
<defs>
<clipPath id="clip0_590_6004">
<rect width="20" height="20" fill="white"/>
</clipPath>
</defs>
</svg>
