<svg width="20" height="20" viewBox="0 0 20 20" fill="none" xmlns="http://www.w3.org/2000/svg">
<g id="Crypto icons" clip-path="url(#clip0_590_991)">
<path id="Vector" fill-rule="evenodd" clip-rule="evenodd" d="M4.14829 1.99902H15.1196C15.3814 1.99902 15.6232 2.14606 15.7536 2.38462L18.95 8.22518C19.1158 8.52807 19.0666 8.91036 18.8301 9.15598L10.032 18.2957C9.74698 18.5918 9.28857 18.5918 9.00356 18.2957L0.217359 9.16832C-0.0245699 8.917 -0.0698725 8.52357 0.10803 8.21878L3.5247 2.36588C3.65777 2.13794 3.89389 1.99902 4.14829 1.99902ZM13.703 4.60663V6.24542H10.5776V7.38162C12.7727 7.50305 14.4195 8.00173 14.4316 8.59946V9.84557C14.4194 10.4433 12.7727 10.942 10.5776 11.0634V13.8518H8.50245V11.0634C6.30746 10.942 4.66065 10.4433 4.64846 9.84557L4.6485 8.59946C4.66073 8.00173 6.30746 7.50305 8.50245 7.38162V6.24542H5.37718V4.60663H13.703ZM9.54003 10.2073C11.8825 10.2073 13.8404 9.78566 14.3195 9.22253C13.9132 8.745 12.4435 8.36915 10.5776 8.26593V9.45556C10.2433 9.47406 9.89613 9.48381 9.54003 9.48381C9.18401 9.48381 8.83688 9.47406 8.50245 9.45556V8.26593C6.63662 8.36915 5.16693 8.745 4.76061 9.22253C5.23975 9.78566 7.19763 10.2073 9.54003 10.2073Z" fill="#009393"/>
<path id="Vector_2" fill-rule="evenodd" clip-rule="evenodd" d="M13.703 4.60742V6.24621H10.5777V7.38242C12.7727 7.50384 14.4195 8.00252 14.4318 8.60025L14.4317 9.84636C14.4195 10.4441 12.7727 10.9428 10.5777 11.0642V13.8526H8.50249V11.0642C6.3075 10.9428 4.66069 10.4441 4.6485 9.84636L4.64854 8.60025C4.66077 8.00252 6.3075 7.50384 8.50249 7.38242V6.24621H5.37721V4.60742H13.703ZM14.3196 9.22333C13.8404 9.78645 11.8825 10.2081 9.54014 10.2081C7.19766 10.2081 5.23978 9.78645 4.76064 9.22333C5.16696 8.74579 6.63666 8.36994 8.50249 8.26672V9.45636C8.83692 9.47485 9.18405 9.4846 9.54014 9.4846C9.89614 9.4846 10.2433 9.47485 10.5777 9.45636V8.26672C12.4436 8.36994 13.9132 8.74579 14.3196 9.22333Z" fill="white"/>
<path id="Vector_3" d="M16.2204 10L19.1154 15.0231L16.2311 13.7287L16.2204 10Z" fill="#E68F7B"/>
<path id="Vector_4" d="M13.3333 15.0231L16.2204 10L16.2311 13.7287L13.3333 15.0231Z" fill="#F8EC7C"/>
<path id="Vector_5" d="M16.2204 16.874L13.3333 15.0219L16.2311 13.7275L16.2204 16.874Z" fill="#6EB87D"/>
<path id="Vector_6" d="M19.1154 15.0219L16.2311 13.7275L16.2204 16.874L19.1154 15.0219Z" fill="#946BA7"/>
<path id="Vector_7" d="M16.2204 17.5119L19.1154 15.71L16.2204 19.9931V17.5119Z" fill="#697CB9"/>
<path id="Vector_8" d="M16.2204 17.5119L13.3333 15.71L16.2204 19.9931V17.5119Z" fill="#4FADD0"/>
</g>
<defs>
<clipPath id="clip0_590_991">
<rect width="20" height="20" fill="white"/>
</clipPath>
</defs>
</svg>
