<svg width="212" height="73" viewBox="0 0 212 73" fill="none" xmlns="http://www.w3.org/2000/svg">
<g id="FAQ (Stroke)">
<path id="Stroke" opacity="0.3" fill-rule="evenodd" clip-rule="evenodd" d="M166.841 40.1903H185.015L186.662 42.2603C187.397 40.0766 187.792 37.3808 187.792 34.1278C187.792 30.5459 187.313 27.6527 186.432 25.3854L186.428 25.3765L186.425 25.3676C185.566 23.0944 184.338 21.5005 182.799 20.4475L182.789 20.4407L182.779 20.4337C181.265 19.3706 179.326 18.7812 176.843 18.7812C174.361 18.7812 172.407 19.3704 170.869 20.4394L170.865 20.4419C169.341 21.4958 168.109 23.0949 167.227 25.3775C166.363 27.6483 165.894 30.5447 165.894 34.1278C165.894 37.7079 166.362 40.6155 167.228 42.9092C168.106 45.1638 169.336 46.7676 170.867 47.8454C171.647 48.3774 172.534 48.7887 173.542 49.065L166.841 40.1903ZM177.846 51.4452C177.518 51.4647 177.184 51.4744 176.843 51.4744C176.316 51.4744 175.805 51.4512 175.309 51.4047C173.16 51.2031 171.299 50.5646 169.727 49.4893C167.814 48.1456 166.358 46.1911 165.36 43.6257C164.383 41.04 163.894 37.8741 163.894 34.1278C163.894 30.3816 164.383 27.2259 165.36 24.6605C166.358 22.0748 167.814 20.1203 169.727 18.7969C171.662 17.4531 174.034 16.7812 176.843 16.7812C179.653 16.7812 182.015 17.4531 183.928 18.7969C185.863 20.1203 187.318 22.0748 188.296 24.6605C189.293 27.2259 189.792 30.3816 189.792 34.1278C189.792 37.8741 189.293 41.04 188.296 43.6257C188.237 43.7805 188.176 43.9331 188.113 44.0834C187.821 44.7873 187.49 45.4425 187.122 46.0489L184.051 42.1903H170.857L177.846 51.4452ZM199.3 57.1289C198.844 57.6238 198.372 58.0993 197.884 58.5552L207.383 70.0426H192.357L187.65 64.563C186.96 64.7949 186.26 65.0029 185.549 65.1871C182.801 65.8995 179.9 66.2557 176.843 66.2557C171.142 66.2557 165.991 65.0239 161.39 62.5604C156.809 60.0765 153.165 56.4524 150.457 51.6882C147.769 46.9036 146.426 41.0502 146.426 34.1278C146.426 27.1648 147.769 21.3011 150.457 16.5369C153.165 11.7524 156.809 8.13849 161.39 5.69531C165.991 3.23177 171.142 2 176.843 2C182.503 2 187.634 3.23177 192.235 5.69531C196.837 8.13849 200.491 11.7524 203.199 16.5369C205.907 21.3011 207.261 27.1648 207.261 34.1278C207.261 41.0909 205.907 46.9647 203.199 51.7493C202.065 53.7442 200.765 55.5374 199.3 57.1289ZM204.94 15.5518C207.858 20.6877 209.261 26.9118 209.261 34.1278C209.261 41.3458 207.857 47.5794 204.94 52.7344L204.938 52.7376C203.683 54.9452 202.232 56.9286 200.585 58.6834L211.632 72.0426H191.439L186.99 66.8649C183.793 67.7944 180.408 68.2557 176.843 68.2557C170.844 68.2557 165.364 66.9566 160.446 64.3236L160.437 64.3186C155.51 61.6471 151.601 57.7481 148.718 52.6765L148.713 52.6677C145.819 47.5156 144.426 41.3051 144.426 34.1278C144.426 26.9126 145.818 20.6895 148.715 15.5543L148.716 15.5518C151.6 10.4572 155.513 6.56321 160.449 3.9306C165.366 1.29858 170.845 0 176.843 0C182.803 0 188.262 1.2999 193.178 3.93122C198.132 6.56312 202.056 10.4564 204.94 15.5518Z" fill="#E6BF00"/>
<path id="Stroke_2" opacity="0.3" fill-rule="evenodd" clip-rule="evenodd" d="M82.9552 67.4004H60.3796L82.3448 0.85498H108.447L130.412 67.4004H107.837L104.223 55.4288H86.5692L82.9552 67.4004ZM81.4698 65.4004H63.1459L83.7908 2.85498H107.001L127.646 65.4004H109.322L105.708 53.4288H85.0839L81.4698 65.4004ZM88.9192 40.7243H101.873L95.6403 20.0794H95.1516L88.9192 40.7243ZM91.6121 38.7243H99.1797L95.3959 26.1904L91.6121 38.7243Z" fill="#E6BF00"/>
<path id="Stroke_3" opacity="0.3" fill-rule="evenodd" clip-rule="evenodd" d="M0 67.4004V0.85498H47.9773V18.5368H20.9801V25.2868H45.2898V42.9686H20.9801V67.4004H0ZM18.9801 40.9686H43.2898V27.2868H18.9801V16.5368H45.9773V2.85498H2V65.4004H18.9801V40.9686Z" fill="#E6BF00"/>
</g>
</svg>
