<svg width="25" height="24" viewBox="0 0 25 24" fill="none" xmlns="http://www.w3.org/2000/svg">
<g id="Social" clip-path="url(#clip0_626_2740)">
<path id="Vector" d="M12.6 0C19.2274 0 24.6 5.37259 24.6 12C24.6 18.1352 19.9956 23.1944 14.0539 23.9121V15.667L17.3001 15.667L17.9735 12H14.0539V10.7031C14.0539 9.73417 14.2439 9.06339 14.6799 8.63483C15.1159 8.20627 15.7979 8.01993 16.7817 8.01993C17.0307 8.01993 17.2599 8.02241 17.4633 8.02736C17.7591 8.03456 18.0002 8.047 18.1681 8.06467V4.74048C18.101 4.72184 18.0218 4.70321 17.9331 4.68486C17.7321 4.6433 17.4822 4.60324 17.2137 4.56806C16.6524 4.49453 16.0093 4.4423 15.5594 4.4423C13.7424 4.4423 12.3692 4.83102 11.4107 5.63619C10.2539 6.60791 9.70112 8.18622 9.70112 10.4199V12H7.22662V15.667H9.70112V23.6466C4.47435 22.3498 0.600037 17.6277 0.600037 12C0.600037 5.37259 5.97262 0 12.6 0Z" fill="#BDBDBD"/>
</g>
<defs>
<clipPath id="clip0_626_2740">
<rect width="24" height="24" fill="white" transform="translate(0.600037)"/>
</clipPath>
</defs>
</svg>
