<svg width="25" height="24" viewBox="0 0 25 24" fill="none" xmlns="http://www.w3.org/2000/svg">
<g id="Social">
<g id="Vector">
<path d="M18.5952 7.02212C17.8005 7.02368 17.1543 6.3802 17.1528 5.58548C17.1512 4.79076 17.7947 4.14457 18.5898 4.14302C19.3849 4.14146 20.031 4.78531 20.0326 5.58004C20.0338 6.37476 19.3903 7.02057 18.5952 7.02212Z" fill="#BDBDBD"/>
<path fill-rule="evenodd" clip-rule="evenodd" d="M12.2115 18.161C8.8091 18.1676 6.04511 15.4149 6.03852 12.0117C6.03189 8.60923 8.78537 5.84481 12.1878 5.8382C15.5909 5.83159 18.3553 8.5859 18.3619 11.9879C18.3685 15.3912 15.6143 18.1544 12.2115 18.161ZM12.1921 8.00035C9.98366 8.00424 8.19595 9.79858 8.19984 12.0074C8.20412 14.2166 9.99883 16.0039 12.2072 15.9996C14.4164 15.9954 16.2041 14.2014 16.1998 11.9922C16.1955 9.78302 14.4008 7.99608 12.1921 8.00035Z" fill="#BDBDBD"/>
<path fill-rule="evenodd" clip-rule="evenodd" d="M4.31922 0.646479C5.08127 0.347876 5.95335 0.143362 7.23017 0.0830982C8.51012 0.0216726 8.91874 0.00767102 12.1769 0.00145262C15.4358 -0.00476578 15.8444 0.00766862 17.1244 0.0644334C18.4016 0.119643 19.2741 0.321049 20.0377 0.616544C20.8277 0.920974 21.498 1.33078 22.166 1.99603C22.8339 2.66205 23.2453 3.33002 23.5536 4.1189C23.8518 4.88174 24.0563 5.75306 24.117 7.03068C24.1776 8.31023 24.1924 8.71847 24.1986 11.9771C24.2048 15.2353 24.1916 15.6443 24.1356 16.925C24.08 18.2014 23.879 19.0743 23.5835 19.8375C23.2783 20.6276 22.8693 21.2979 22.204 21.9659C21.5388 22.6342 20.8701 23.0452 20.0812 23.3539C19.3184 23.6517 18.4471 23.8562 17.1703 23.9173C15.8903 23.9779 15.4817 23.9923 12.2224 23.9985C8.96461 24.0048 8.55599 23.9923 7.27606 23.9359C5.99884 23.88 5.12598 23.6789 4.36276 23.3838C3.57273 23.0782 2.90243 22.6696 2.23447 22.004C1.56612 21.3383 1.1544 20.67 0.846471 19.8811C0.54787 19.1186 0.344119 18.2469 0.283085 16.9705C0.222048 15.6901 0.207667 15.2811 0.201451 12.0229C0.195211 8.76435 0.208049 8.35611 0.264029 7.07616C0.320412 5.79855 0.520649 4.92606 0.816142 4.16206C1.12134 3.37239 1.53036 2.70248 2.19638 2.03413C2.86162 1.36616 3.53034 0.954017 4.31922 0.646479ZM5.14155 21.3679C5.56495 21.5308 6.20024 21.7252 7.37015 21.7761C8.63608 21.8309 9.01515 21.843 12.2185 21.8368C15.423 21.8309 15.8021 21.8173 17.0676 21.7579C18.2364 21.7022 18.8716 21.5055 19.2939 21.3407C19.8542 21.1218 20.2531 20.8601 20.6722 20.4406C21.0913 20.0195 21.3506 19.6194 21.5676 19.0591C21.7309 18.6354 21.9249 17.9996 21.9758 16.8297C22.0314 15.5646 22.0431 15.1851 22.0369 11.9809C22.031 8.77757 22.0174 8.3981 21.9572 7.13254C21.902 5.96339 21.7056 5.32808 21.5404 4.90623C21.3215 4.34519 21.0606 3.94705 20.6399 3.52753C20.2192 3.10801 19.8192 2.84945 19.2581 2.6325C18.8355 2.46881 18.1994 2.27518 17.0303 2.22426C15.7643 2.16865 15.3849 2.15737 12.1808 2.1636C8.97744 2.16982 8.59837 2.18264 7.33282 2.24253C6.16331 2.29812 5.52878 2.49447 5.10576 2.65972C4.54589 2.87861 4.14698 3.13872 3.72747 3.5598C3.30872 3.98087 3.04939 4.38018 2.83245 4.94161C2.66994 5.36464 2.47436 6.00072 2.42421 7.16987C2.36899 8.43581 2.35734 8.81529 2.36356 12.0187C2.3694 15.2228 2.383 15.6023 2.44249 16.8671C2.49731 18.037 2.69519 18.6715 2.85967 19.0949C3.07856 19.6544 3.33945 20.0533 3.75974 20.4729C4.18082 20.8908 4.58089 21.1509 5.14155 21.3679Z" fill="#BDBDBD"/>
</g>
</g>
</svg>
