<svg width="25" height="24" viewBox="0 0 25 24" fill="none" xmlns="http://www.w3.org/2000/svg">
<g id="Social">
<g clip-path="url(#clip0_626_3133)">
<rect x="0.800049" width="24" height="24" rx="4" fill="#333333"/>
<path id="Vector" d="M23.0235 0H2.57192C1.59224 0 0.800049 0.773438 0.800049 1.72969V22.2656C0.800049 23.2219 1.59224 24 2.57192 24H23.0235C24.0032 24 24.8 23.2219 24.8 22.2703V1.72969C24.8 0.773438 24.0032 0 23.0235 0ZM7.92036 20.4516H4.35786V8.99531H7.92036V20.4516ZM6.13911 7.43438C4.99536 7.43438 4.07192 6.51094 4.07192 5.37187C4.07192 4.23281 4.99536 3.30937 6.13911 3.30937C7.27817 3.30937 8.20161 4.23281 8.20161 5.37187C8.20161 6.50625 7.27817 7.43438 6.13911 7.43438ZM21.2516 20.4516H17.6938V14.8828C17.6938 13.5562 17.6704 11.8453 15.8422 11.8453C13.9907 11.8453 13.7094 13.2937 13.7094 14.7891V20.4516H10.1563V8.99531H13.5688V10.5609H13.6157C14.0891 9.66094 15.2516 8.70938 16.9813 8.70938C20.586 8.70938 21.2516 11.0813 21.2516 14.1656V20.4516Z" fill="#BDBDBD"/>
</g>
</g>
<defs>
<clipPath id="clip0_626_3133">
<rect x="0.800049" width="24" height="24" rx="4" fill="white"/>
</clipPath>
</defs>
</svg>
