<svg width="56" height="64" viewBox="0 0 56 64" fill="none" xmlns="http://www.w3.org/2000/svg">
<g id="paypal" clip-path="url(#clip0_526_5239)">
<path id="Vector" fill-rule="evenodd" clip-rule="evenodd" d="M47.2159 4.82668C44.2279 1.44801 38.8293 1.31666e-05 31.9199 1.31666e-05H11.8733C11.1921 -0.00205023 10.5325 0.238471 10.0126 0.678488C9.49273 1.1185 9.14648 1.72926 9.03592 2.40135L0.689256 54.9254C0.651457 55.1701 0.667187 55.42 0.735359 55.6581C0.803531 55.8961 0.922524 56.1165 1.08413 56.3041C1.24574 56.4917 1.44611 56.642 1.67143 56.7446C1.89675 56.8473 2.14166 56.8998 2.38926 56.8987H14.7653L17.8746 37.3387L17.7773 37.952C17.8855 37.2807 18.2295 36.67 18.7476 36.2296C19.2657 35.7892 19.9239 35.548 20.6039 35.5493H26.4839C38.0413 35.5493 47.0866 30.8933 49.7293 17.4253C49.8093 17.0253 49.9346 16.26 49.9346 16.26C50.6853 11.276 49.9293 7.89335 47.2146 4.82535L47.2159 4.82668ZM53.0679 18.8107C50.1933 32.0707 41.0279 39.088 26.4853 39.088H21.2106L17.2773 64H25.8319C26.4276 64.0015 27.0043 63.7909 27.4587 63.4058C27.9131 63.0208 28.2156 62.4865 28.3119 61.8987L28.4119 61.3707L30.3799 49.0067L30.5066 48.324C30.6021 47.7363 30.9039 47.2019 31.358 46.8168C31.812 46.4317 32.3885 46.221 32.9839 46.2227H34.5466C44.6533 46.2227 52.5679 42.148 54.8799 30.3693C55.8079 25.64 55.3626 21.676 53.0679 18.8107Z" fill="#BDBDBD"/>
</g>
<defs>
<clipPath id="clip0_526_5239">
<rect width="54.6667" height="64" fill="white" transform="translate(0.666626)"/>
</clipPath>
</defs>
</svg>
