<svg width="25" height="24" viewBox="0 0 25 24" fill="none" xmlns="http://www.w3.org/2000/svg">
<g id="Social">
<path id="Vector" fill-rule="evenodd" clip-rule="evenodd" d="M2.7124 10.8488C8.61797 8.27585 12.5559 6.57959 14.5263 5.76003C20.1521 3.42005 21.3211 3.01357 22.0831 3.00014C22.2506 2.99719 22.6253 3.03872 22.868 3.23567C23.073 3.40197 23.1294 3.62661 23.1564 3.78428C23.1833 3.94195 23.2169 4.30112 23.1902 4.58177C22.8854 7.78504 21.5662 15.5585 20.8951 19.1462C20.6111 20.6643 20.052 21.1733 19.5107 21.2231C18.3343 21.3314 17.441 20.4457 16.3015 19.6988C14.5186 18.53 13.5113 17.8025 11.7807 16.662C9.7806 15.3439 11.0772 14.6195 12.217 13.4356C12.5153 13.1258 17.6986 8.41117 17.7989 7.98348C17.8115 7.92999 17.8231 7.7306 17.7047 7.62532C17.5862 7.52004 17.4114 7.55604 17.2852 7.58467C17.1064 7.62526 14.2581 9.50789 8.74036 13.2326C7.93189 13.7877 7.19959 14.0582 6.54348 14.044C5.82017 14.0284 4.42882 13.6351 3.39449 13.2988C2.12584 12.8865 1.11754 12.6684 1.20534 11.9681C1.25107 11.6033 1.75343 11.2302 2.7124 10.8488Z" fill="#BDBDBD"/>
</g>
</svg>
