<svg width="25" height="24" viewBox="0 0 25 24" fill="none" xmlns="http://www.w3.org/2000/svg">
<path id="Vector" d="M0.600037 24L2.28704 17.837C1.24604 16.033 0.699037 13.988 0.700037 11.891C0.703037 5.335 6.03804 0 12.593 0C15.774 0.001 18.76 1.24 21.006 3.488C23.251 5.736 24.487 8.724 24.486 11.902C24.483 18.459 19.148 23.794 12.593 23.794C10.603 23.793 8.64204 23.294 6.90504 22.346L0.600037 24ZM7.19704 20.193C8.87304 21.188 10.473 21.784 12.589 21.785C18.037 21.785 22.475 17.351 22.478 11.9C22.48 6.438 18.063 2.01 12.597 2.008C7.14504 2.008 2.71004 6.442 2.70804 11.892C2.70704 14.117 3.35904 15.783 4.45404 17.526L3.45504 21.174L7.19704 20.193ZM18.584 14.729C18.51 14.605 18.312 14.531 18.014 14.382C17.717 14.233 16.256 13.514 15.983 13.415C15.711 13.316 15.513 13.266 15.314 13.564C15.116 13.861 14.546 14.531 14.373 14.729C14.2 14.927 14.026 14.952 13.729 14.803C13.432 14.654 12.474 14.341 11.339 13.328C10.456 12.54 9.85904 11.567 9.68604 11.269C9.51304 10.972 9.66804 10.811 9.81604 10.663C9.95004 10.53 10.113 10.316 10.262 10.142C10.413 9.97 10.462 9.846 10.562 9.647C10.661 9.449 10.612 9.275 10.537 9.126C10.462 8.978 9.86804 7.515 9.62104 6.92C9.37904 6.341 9.13404 6.419 8.95204 6.41L8.38204 6.4C8.18404 6.4 7.86204 6.474 7.59004 6.772C7.31804 7.07 6.55004 7.788 6.55004 9.251C6.55004 10.714 7.61504 12.127 7.76304 12.325C7.91204 12.523 9.85804 15.525 12.839 16.812C13.548 17.118 14.102 17.301 14.533 17.438C15.245 17.664 15.893 17.632 16.405 17.556C16.976 17.471 18.163 16.837 18.411 16.143C18.659 15.448 18.659 14.853 18.584 14.729Z" fill="#BDBDBD"/>
</svg>
